<svg xmlns="http://www.w3.org/2000/svg" fill="none" viewBox="0 0 110 240">
  <path fill="#83D2FF" d="m33.5 6.5-.1 1c-.5 2-.6 2.3-2.8 4-2.5 2-3.4 3.2-6 8.2-3.1 6.1-6.4 12-10 17.8-1.2.8-1.4-.1-1.4-7-.1-5.7 0-6.7.5-8.3A26 26 0 0 1 23.8 9c3.9-2.8 5.3-3.5 7.4-3.5 1.6 0 2.3.3 2.3 1ZM22.4 136.4c0 2.6 0 4.2-.3 4.2s-8-5.2-8.6-5.8c-.2-.3-.3-6.4-.7-33.1l-.1-7 1.2 1 3.2 2.4c1.3.9 2.1 1.6 2.2 2a316 316 0 0 1 3.1 36.3Zm.1 19v-4.8l-4.3-2.2-4.5-2.2a871.5 871.5 0 0 0 .7 35.9l.1 1 2 .5c2.3.5 4.2.6 4.7.1.3-.2.4-1.1.6-4.8.3-6.2.6-17.7.7-23.5ZM89 219.8c0 1.9-1.5 2.5-4.9 4.5-9.4 5.5-17.5 7.2-32.5 6.7a45 45 0 0 1-24.5-6c-7.2-3.9-7.3-4-4.8-9.8 1.3-2.8 2.4-5.7 3.4-8.6.4-1.4 1-2.7 1.6-3.9l4.5 2.3a42 42 0 0 0 23.3 5.4 41 41 0 0 0 22.9-5.3 23 23 0 0 1 4.5-2.3l3.7 9c1.6 4.3 2.7 6.6 2.8 8Z"/>
  <path fill="#83D2FF" d="m31.9 232-1 .1a19 19 0 0 1-7-2.4 16 16 0 0 0-3.5-1.4 9.7 9.7 0 0 1-6-3.8 11.4 11.4 0 0 1-2.3-7.3c0-1.2.2-2.6.3-3.1l.6-1.7c.3-.6.3-.6.7.3a25.8 25.8 0 0 0 14 16c1.6.8 3.2 2 3.5 2.4l.7 1Zm-12.1-38c0 1-.2 2.4-.6 4.3-1 4.9-2 7.3-2.3 5.7-.3-1.6-.8-6-.9-8.4l-.2-2.4.8-.5c.3-.3 1.1-.6 1.5-.7 1.2-.2 1.8.3 1.7 2Zm77.9 22.3c0 2.2-.3 4.6-.9 6a10 10 0 0 1-7.2 6c-1.2.3-2.4.7-3.5 1.3a20.1 20.1 0 0 1-7.2 2.6l-1-.1.9-1.1c.5-.6 2-1.7 3.3-2.3 3.3-1.4 6.2-3.6 8.7-6.4a29 29 0 0 0 5.5-9.9c.2-.6.2-.6.6 0 .5.7.7 2.2.8 3.9Zm-1.3-68.5-.1 4.5c-.4 18.6-.8 30.6-1 30.8-.2.2-4 1-5.2 1-1.8 0-1.8.1-2.1-6.8l-.8-26.2c0-.4.8-.9 4.3-2.6l4.5-2.2c.3-.1.4 0 .4 1.5Zm.6-49.6v2.5l-.3 26.5-.2 7.5-4.1 3a46 46 0 0 1-4.7 2.9c-.5.1-.5.1-.4-2.2l.2-7.6c.3-8 1.5-20.3 2.7-28.1l.5-3.1 1.3-1a95 95 0 0 0 4.9-3.7l.1 3.3ZM96.8 28v2c0 7.9-.6 9.3-2.5 6.3-1-1.8-7.3-13.1-9.7-17.7a18 18 0 0 0-5.5-7.2 7.9 7.9 0 0 1-2.2-2.3c-.5-1.1-.6-3-.3-3.3.2-.2 1-.3 2-.3 2 0 3.4.6 6.8 3a37 37 0 0 1 8 7.8 26 26 0 0 1 2.4 4.9c.9 2.4 1 2.7 1 6.8ZM94 194.2l-.1 1.5c-.3 3-.6 5.8-1.1 8.7-.4.7-1.5-2.8-2.3-7.2-.7-3.3-.7-3.7-.4-4.4.3-.8 1.1-1 2.4-.5 1 .4 1.5.7 1.5 2Z"/>
  <path fill="#83D2FF" fill-rule="evenodd" d="M109.8 98.2c0-.5 0-2.2-.2-3.2s-.5-2-1-3a19.3 19.3 0 0 0-5.9-5.9c-.4-.3-.8-.7-1.3-.9h-.2c0-17.2-.1-34.4-.5-51.6a35 35 0 0 0-3.6-14.8 31.6 31.6 0 0 0-9.3-11.4c-2.6-2.4-5.7-4-9-4.7C69-1.3 58.2.4 48 .1a44.7 44.7 0 0 0-23.8 5.7 31.7 31.7 0 0 0-14.1 21C7.6 39.4 9 52.5 8.5 65.5v19.6h-.1c-.5.2-.9.6-1.3 1a14.5 14.5 0 0 0-5.8 5.8c-.6 1-.9 2-1 3a20 20 0 0 0-.2 3.8c.1.2.2.2.5.2l.9-.2c2-.6 4-1.5 5.8-2.7l1.3-.8v25.5l-.2.1-.6 1-.2 2.2v7.2c.1 1.1.1 1.4.3 2 .2.5.3.8.6.9V173l-.1 2.1v.1a110.2 110.2 0 0 0 .2 8.8l.3 32.1c0 7.5 4.3 15 10.7 17.5 14.4 6.4 30.3 6.2 45.6 5.6a57 57 0 0 0 29-8.2c6.8-5.4 7-15.6 7-24a3136.3 3136.3 0 0 0 .3-31.8c0-1.1 0-1.5-.2-1.7v-39.3c.4 0 .5-.4.6-1 .3-.5.3-.8.3-2v-7c0-1.7 0-1.7-.2-2.2 0-.5-.3-1-.7-1.2V95.3c1.4 1 2.9 1.9 4.4 2.6l2.6 1 1 .2c.3 0 .4 0 .5-.3v-.6Zm-8.5 30.1v-1 1Zm-4.5 94a16.5 16.5 0 0 0 .1-10c-.4-.5-.5-.5-.7.1-1 3.7-3 7-5.4 9.9a24 24 0 0 1-8.8 6.4c-1.2.6-2.7 1.7-3.2 2.3l-.9 1 1 .2c2.5-.4 5-1.3 7.2-2.6 1.1-.6 2.3-1 3.5-1.3a10 10 0 0 0 7.2-6Zm.2-121.6v-2.5l-.1-3.3a95 95 0 0 1-4.9 3.7l-1.3 1-.5 3.1c-1.3 7.8-2.5 20.1-2.7 28.1l-.2 7.6c0 2.3 0 2.3.5 2.2a46 46 0 0 0 4.6-3l4.1-2.9.2-7.5.3-26.5Zm-.2-70.8v-2c0-4-.1-4.3-1-6.7a26 26 0 0 0-2.3-4.9c-2.4-3-5.1-5.7-8.2-7.8-3.3-2.4-4.7-3-6.6-3-1 0-2 0-2 .3-.4.3-.3 2.2.2 3.3a7 7 0 0 0 2.2 2.3 18 18 0 0 1 5.5 7.2c2.4 4.6 8.7 16 9.7 17.7 1.9 3 2.5 1.6 2.5-6.4Zm-.5 122.4.1-4.5c0-1.5-.1-1.6-.4-1.5l-4.5 2.2c-3.5 1.7-4.3 2.2-4.3 2.6l.8 26.2c.3 7 .3 6.7 2.1 6.7 1.2 0 5-.7 5.3-.9.1-.2.5-12.2.9-30.8Zm-2.4 43.4v-1.5c0-1.2-.4-1.5-1.5-1.9-1.2-.5-2-.3-2.3.4-.3.8-.3 1.2.4 4.5.8 4.4 1.9 8 2.3 7.2.5-2.9.8-5.8 1.1-8.7Zm-9.8 28.6c3.5-2 4.9-2.6 4.9-4.5-.1-1.4-1.2-3.7-2.8-8l-3.7-9a23 23 0 0 0-4.5 2.3c-7 4-15 5.8-22.9 5.3a42 42 0 0 1-23.3-5.4l-4.5-2.3c-.7 1.2-1.2 2.5-1.6 3.9-1 2.9-2.1 5.8-3.3 8.6-2.5 5.8-2.5 6 4.7 9.8a45 45 0 0 0 24.5 6c15 .5 23-1.2 32.5-6.7ZM33.4 7.6v-1h.1c0-.8-.7-1-2.3-1-2 0-3.5.6-7.4 3.4a26 26 0 0 0-10.2 13.2c-.4 1.6-.5 2.6-.4 8.3 0 6.9.2 7.8 1.4 7 3.6-5.8 6.9-11.7 10-17.8 2.6-5 3.5-6.1 6-8.2 2.1-1.7 2.3-2 2.8-4ZM31 232h.9l-.7-1c-.3-.5-2-1.6-3.5-2.4a25.8 25.8 0 0 1-14-16c-.3-.9-.4-1-.7-.3l-.6 1.7-.3 3c0 2.7.7 5.3 2.2 7.4 1.5 2 3.7 3.4 6 3.8 1.2.3 2.8 1 3.6 1.4 2 1.2 6 2.6 7 2.4Zm-8.4-81.5-.1 4.8a477.2 477.2 0 0 1-1.3 28.3c-.5.5-2.4.4-4.8 0l-1.9-.5-.2-1.1a871.5 871.5 0 0 1-.6-35.9l4.5 2.2 4.4 2.2Zm-.5-10c.3 0 .3-1.6.3-4.2a222 222 0 0 0-3.1-36.3c0-.4-.9-1.1-2.2-2L14 95.6l-1.2-1 .1 7c.3 26.8.5 33 .8 33.2.6.6 8.3 5.8 8.5 5.8Zm-2.9 57.7c.4-2 .6-3.3.6-4.3 0-1.7-.5-2.2-1.7-2-.4.1-1.2.4-1.6.7l-.7.5.2 2.4c.1 2.3.6 6.8.9 8.4.3 1.6 1.3-.8 2.3-5.7Z" clip-rule="evenodd"/>
</svg>
