<svg xmlns="http://www.w3.org/2000/svg" fill="none" viewBox="0 0 110 240">
  <path fill="#001B29" d="m33.5 6.5-.1 1c-.5 2-.6 2.3-2.8 4-2.5 2-3.4 3.2-6 8.2-3.1 6.1-6.4 12-10 17.8-1.2.8-1.4-.1-1.4-7-.1-5.7 0-6.7.5-8.3A26 26 0 0 1 23.8 9c3.9-2.8 5.3-3.5 7.4-3.5 1.6 0 2.3.3 2.3 1Zm58.6 56.2c0 1.1-5.8 30.3-7 35.4-.9 3.4-2.8 9.7-4.3 14a56.7 56.7 0 0 0-4.7 19.5c0 3.7-.1 4-3 7l-3.1 3H39.7l-3-3-2.9-3-.3-6c-.3-4.6-.8-7.2-2.6-12.3-4.5-12.7-6.6-21-9.6-36.2L17.9 64c-.2-1.3.2-1.8 2-2.8 5.7-2.6 11.5-4.7 17.5-6.2a97 97 0 0 1 36.6.4 58.3 58.3 0 0 1 18 7.3Zm-69.7 73.7c0 2.6 0 4.2-.3 4.2s-8-5.2-8.6-5.8c-.2-.3-.3-6.4-.7-33.1l-.1-7 1.2 1 3.2 2.4c1.3.9 2.1 1.6 2.2 2a316 316 0 0 1 3.1 36.3Zm.1 19v-4.8l-4.3-2.2-4.5-2.2a871.5 871.5 0 0 0 .7 35.9l.1 1 2 .5c2.3.5 4.2.6 4.7.1.3-.2.4-1.1.6-4.8.3-6.2.6-17.7.7-23.5ZM89 219.8c0 1.9-1.5 2.5-4.9 4.5-9.4 5.5-17.5 7.2-32.5 6.7a45 45 0 0 1-24.5-6c-7.2-3.9-7.3-4-4.8-9.8 1.3-2.8 2.4-5.7 3.4-8.6.4-1.4 1-2.7 1.6-3.9l4.5 2.3a42 42 0 0 0 23.3 5.4 41 41 0 0 0 22.9-5.3 23 23 0 0 1 4.5-2.3l3.7 9c1.6 4.3 2.7 6.6 2.8 8Z"/>
  <path fill="#001B29" d="m31.9 232-1 .1a19 19 0 0 1-7-2.4 16 16 0 0 0-3.5-1.4 9.7 9.7 0 0 1-6-3.8 11.4 11.4 0 0 1-2.3-7.3c0-1.2.2-2.6.3-3.1l.6-1.7c.3-.6.3-.6.7.3a25.8 25.8 0 0 0 14 16c1.6.8 3.2 2 3.5 2.4l.7 1Zm-12.1-38c0 1-.2 2.4-.6 4.3-1 4.9-2 7.3-2.3 5.7-.3-1.6-.8-6-.9-8.4l-.2-2.4.8-.5c.3-.3 1.1-.6 1.5-.7 1.2-.2 1.8.3 1.7 2Zm77.9 22.3c0 2.2-.3 4.6-.9 6a10 10 0 0 1-7.2 6c-1.2.3-2.4.7-3.5 1.3a20.1 20.1 0 0 1-7.2 2.6l-1-.1.9-1.1c.5-.6 2-1.7 3.3-2.3 3.3-1.4 6.2-3.6 8.7-6.4a29 29 0 0 0 5.5-9.9c.2-.6.2-.6.6 0 .5.7.7 2.2.8 3.9Zm-1.3-68.5-.1 4.5c-.4 18.6-.8 30.6-1 30.8-.2.2-4 1-5.2 1-1.8 0-1.8.1-2.1-6.8l-.8-26.2c0-.4.8-.9 4.3-2.6l4.5-2.2c.3-.1.4 0 .4 1.5Zm.6-49.6v2.5l-.3 26.5-.2 7.5-4.1 3a46 46 0 0 1-4.7 2.9c-.5.1-.5.1-.4-2.2l.2-7.6c.3-8 1.5-20.3 2.7-28.1l.5-3.1 1.3-1a95 95 0 0 0 4.9-3.7l.1 3.3ZM96.8 28v2c0 7.9-.6 9.3-2.5 6.3-1-1.8-7.3-13.1-9.7-17.7a18 18 0 0 0-5.5-7.2 7.9 7.9 0 0 1-2.2-2.3c-.5-1.1-.6-3-.3-3.3.2-.2 1-.3 2-.3 2 0 3.4.6 6.8 3a37 37 0 0 1 8 7.8 26 26 0 0 1 2.4 4.9c.9 2.4 1 2.7 1 6.8ZM94 194.2l-.1 1.5c-.3 3-.6 5.8-1.1 8.7-.4.7-1.5-2.8-2.3-7.2-.7-3.3-.7-3.7-.4-4.4.3-.8 1.1-1 2.4-.5 1 .4 1.5.7 1.5 2Z"/>
</svg>
